<?xml version="1.0" encoding="utf-8"?>
<!-- Generator: Adobe Illustrator 28.1.0, SVG Export Plug-In . SVG Version: 6.00 Build 0)  -->
<svg version="1.1" id="Ebene_1" xmlns="http://www.w3.org/2000/svg" xmlns:xlink="http://www.w3.org/1999/xlink" x="0px" y="0px"
	 viewBox="0 0 856.78 768" style="enable-background:new 0 0 856.78 768;" xml:space="preserve">
<style type="text/css">
	.st0{fill:none;stroke:none;stroke-width:40;stroke-miterlimit:10;}
</style>
<g>
	<g>
		<g>
			<rect x="304.04" y="357.12" transform="matrix(0.939 -0.3438 0.3438 0.939 -107.8966 159.993)" width="186.42" height="54.32" fill="rgba(255, 255, 255, 0.7)"/>
		</g>
		<path d="M325.04,504.87l-29.87,10.94c-7.83,2.87-16.51-1.16-19.37-8.99l-50.44-137.78c-2.85-7.78,1.15-16.4,8.93-19.24
			l29.97-10.97L325.04,504.87z" fill="rgba(255, 255, 255, 0.7)"/>
		<path d="M560.09,418.81l-29.59,10.83c-0.14,0.05-0.29-0.02-0.33-0.16l-60.61-165.56c-0.05-0.14,0.02-0.29,0.16-0.33l29.35-10.75
			c7.98-2.92,16.82,1.18,19.75,9.16l50.29,137.37C571.98,407.24,567.94,415.94,560.09,418.81z" fill="rgba(255, 255, 255, 0.7)"/>
		<path d="M247.41,476l-7.85,2.87c-7.83,2.87-16.51-1.16-19.37-8.99l-13.45-36.75c-2.85-7.78,1.15-16.4,8.93-19.24l7.94-2.91
			L247.41,476z" fill="rgba(255, 255, 255, 0.7)"/>
		<path d="M570.9,357.57l7.85-2.87c7.83-2.87,11.86-11.54,8.99-19.37l-13.45-36.75c-2.85-7.78-11.46-11.78-19.24-8.93l-7.94,2.91
			L570.9,357.57z" fill="rgba(255, 255, 255, 0.7)"/>
	</g>
	<path class="st0" d="M517.3,113.02H174.86c-18.9,0-34.22,20.48-34.22,45.73v450.5c0,25.26,15.32,45.73,34.22,45.73H517.3
		c9.17,0,17.97-4.92,24.4-13.66L731.11,384L541.7,126.68C535.26,117.94,526.47,113.02,517.3,113.02z" fill="rgba(255, 255, 255, 0.7)"/>
</g>
</svg>
